<svg xmlns="http://www.w3.org/2000/svg" width="32.35" height="36.972" viewBox="0 0 32.35 36.972"><defs><style>.a{fill:#e2e5e7;}.b{fill:#b0b7bd;}.c{fill:#cad1d8;}.d{fill:#50bee8;}.e{fill:#fff;}</style></defs><g transform="translate(-32)"><path class="a" d="M98.311,0A2.318,2.318,0,0,0,96,2.311v32.35a2.318,2.318,0,0,0,2.311,2.311h23.107a2.318,2.318,0,0,0,2.311-2.311V9.243L114.486,0Z" transform="translate(-59.379)"/><path class="b" d="M354.311,9.243h6.932L352,0V6.932A2.318,2.318,0,0,0,354.311,9.243Z" transform="translate(-296.893)"/><path class="c" d="M390.932,134.932,384,128h6.932Z" transform="translate(-326.582 -118.757)"/><path class="d" d="M59.729,252.709a1.159,1.159,0,0,1-1.155,1.155H33.155A1.159,1.159,0,0,1,32,252.709V241.155A1.159,1.159,0,0,1,33.155,240H58.573a1.159,1.159,0,0,1,1.155,1.155Z" transform="translate(0 -222.67)"/><g transform="translate(36.722 21.172)"><path class="e" d="M100.612,295.67a.611.611,0,0,1,1.22,0v3.649a2.054,2.054,0,0,1-2.291,2.329,2.32,2.32,0,0,1-2.014-.952c-.471-.564.416-1.376.9-.786a1.375,1.375,0,0,0,1.21.573c.516-.018.971-.251.98-1.165V295.67Z" transform="translate(-97.394 -294.952)"/><path class="e" d="M181.344,294.958a.636.636,0,0,1,.629-.638h2.134a2.31,2.31,0,0,1,0,4.619h-1.542v1.22a.58.58,0,0,1-.592.637.623.623,0,0,1-.629-.637v-5.2Zm1.22.526v2.3h1.542a1.152,1.152,0,0,0,0-2.3Z" transform="translate(-175.282 -294.239)"/><path class="e" d="M270.758,299.046a3.5,3.5,0,0,1-2.273.776,3.046,3.046,0,0,1-3.317-3.308,3.293,3.293,0,0,1,3.4-3.315,3.024,3.024,0,0,1,2.106.812.6.6,0,0,1-.8.887,1.952,1.952,0,0,0-1.3-.582,2.2,2.2,0,0,0-2.2,2.2,2.045,2.045,0,0,0,2.115,2.2,2.359,2.359,0,0,0,1.385-.416v-1.136h-1.385a.564.564,0,1,1,0-1.128h1.847a.632.632,0,0,1,.655.545v1.968A.744.744,0,0,1,270.758,299.046Z" transform="translate(-253.053 -293.2)"/></g><path class="c" d="M117.952,417.155H96v1.155h21.952a1.159,1.159,0,0,0,1.155-1.155V416A1.159,1.159,0,0,1,117.952,417.155Z" transform="translate(-59.379 -385.961)"/></g></svg>