<svg xmlns="http://www.w3.org/2000/svg" width="32.375" height="37" viewBox="0 0 32.375 37"><defs><style>.b{fill:#b0b7bd;}.c{fill:#cad1d8;}.d{fill:#f15642;}.e{fill:#fff;}</style></defs><path class="a" d="M98.313,0A2.319,2.319,0,0,0,96,2.313V34.688A2.319,2.319,0,0,0,98.313,37h23.125a2.319,2.319,0,0,0,2.313-2.312V9.25L114.5,0Z" transform="translate(-91.375)"/><path class="b" d="M354.313,9.25h6.938L352,0V6.938A2.319,2.319,0,0,0,354.313,9.25Z" transform="translate(-328.875)"/><path class="c" d="M390.938,134.938,384,128h6.938Z" transform="translate(-358.563 -118.75)"/><path class="d" d="M59.75,252.719a1.16,1.16,0,0,1-1.156,1.156H33.156A1.16,1.16,0,0,1,32,252.719V241.156A1.16,1.16,0,0,1,33.156,240H58.594a1.16,1.16,0,0,1,1.156,1.156Z" transform="translate(-32 -222.656)"/><g transform="translate(5.04 21.269)"><path class="e" d="M101.744,294.958a.636.636,0,0,1,.628-.638h2.136a2.311,2.311,0,0,1,0,4.623h-1.544v1.221a.58.58,0,0,1-.592.637.623.623,0,0,1-.628-.637Zm1.22.526v2.3h1.544a1.152,1.152,0,0,0,0-2.3Z" transform="translate(-101.744 -294.32)"/><path class="e" d="M188.462,301.87a.579.579,0,0,1-.638-.572v-5.252a.629.629,0,0,1,.638-.573h2.117c4.225,0,4.132,6.4.083,6.4Zm.583-5.269v4.142h1.534c2.5,0,2.607-4.142,0-4.142Z" transform="translate(-181.603 -295.389)"/><path class="e" d="M288.345,296.66v1.47H290.7a.715.715,0,0,1,.666.656.642.642,0,0,1-.666.555h-2.358v1.941a.548.548,0,0,1-.554.572.587.587,0,0,1-.656-.572v-5.252a.584.584,0,0,1,.656-.573h3.246a.577.577,0,0,1,.647.573.639.639,0,0,1-.647.629h-2.692Z" transform="translate(-273.739 -295.374)"/></g><path class="c" d="M117.969,417.156H96v1.156h21.969a1.16,1.16,0,0,0,1.156-1.156V416A1.16,1.16,0,0,1,117.969,417.156Z" transform="translate(-91.375 -385.938)"/></svg>