<svg xmlns="http://www.w3.org/2000/svg" width="32.518" height="37.163" viewBox="0 0 32.518 37.163"><defs><style>.a{fill:#e2e5e7;}.b{fill:#b0b7bd;}.c{fill:#cad1d8;}.d{fill:#84bd5a;}.e{fill:#fff;}</style></defs><g transform="translate(-32)"><path class="a" d="M98.323,0A2.33,2.33,0,0,0,96,2.323V34.84a2.33,2.33,0,0,0,2.323,2.323H121.55a2.33,2.33,0,0,0,2.323-2.323V9.291L114.581,0Z" transform="translate(-59.355)"/><path class="b" d="M354.323,9.291h6.968L352,0V6.968A2.33,2.33,0,0,0,354.323,9.291Z" transform="translate(-296.773)"/><path class="c" d="M390.968,134.968,384,128h6.968Z" transform="translate(-326.451 -118.709)"/><path class="d" d="M59.872,252.775a1.165,1.165,0,0,1-1.161,1.161H33.161A1.165,1.165,0,0,1,32,252.775V241.161A1.165,1.165,0,0,1,33.161,240H58.711a1.165,1.165,0,0,1,1.161,1.161Z" transform="translate(0 -222.58)"/><g transform="translate(37.315 21.151)"><path class="e" d="M108.065,297.3l1.615-2.024c.483-.632,1.421.175.892.779-.556.66-1.142,1.375-1.7,2.108l1.894,2.359a.61.61,0,1,1-1.012.677l-1.71-2.191-1.68,2.239c-.474.677-1.524-.084-.994-.715l1.866-2.368c-.585-.734-1.152-1.448-1.718-2.108a.6.6,0,1,1,.929-.759Z" transform="translate(-105.226 -294.779)"/><path class="e" d="M197.36,295.911a.579.579,0,0,1,.585-.567.566.566,0,0,1,.548.567v4.652h2.526a.613.613,0,1,1,0,1.216h-3.073a.561.561,0,0,1-.585-.566v-5.3Z" transform="translate(-190.673 -295.058)"/><path class="e" d="M270.654,293.1c.214-1.8,2.934-2.126,4.216-1.142a.544.544,0,1,1-.595.909c-.688-.435-2.247-.64-2.442.324-.251,1.524,3.788.652,3.723,3.122-.065,2.359-3.482,2.413-4.764,1.355a.686.686,0,0,1-.13-.91.548.548,0,0,1,.827-.064c.761.519,2.721.909,2.859-.41C274.229,294.908,270.366,295.733,270.654,293.1Z" transform="translate(-258.547 -291.407)"/></g><path class="c" d="M118.065,417.161H96v1.161h22.065a1.165,1.165,0,0,0,1.161-1.161V416A1.165,1.165,0,0,1,118.065,417.161Z" transform="translate(-59.355 -385.805)"/></g></svg>